<?xml version="1.0" encoding="UTF-8"?>
<svg width="102px" height="18px" viewBox="0 0 102 18" version="1.1" xmlns="http://www.w3.org/2000/svg" xmlns:xlink="http://www.w3.org/1999/xlink">
    <title>编组</title>
    <defs>
        <linearGradient x1="-29.7410192%" y1="46.0363873%" x2="1782.53968%" y2="135.867446%" id="linearGradient-1">
            <stop stop-color="#0071FF" offset="0%"></stop>
            <stop stop-color="#00DDFF" stop-opacity="0.75" offset="21%"></stop>
            <stop stop-color="#006CFF" stop-opacity="0.92" offset="46%"></stop>
            <stop stop-color="#00FCA7" offset="72%"></stop>
            <stop stop-color="#00A2FF" offset="100%"></stop>
        </linearGradient>
        <linearGradient x1="1.9182998%" y1="42.8897548%" x2="388.266659%" y2="114.10759%" id="linearGradient-2">
            <stop stop-color="#0071FF" offset="0%"></stop>
            <stop stop-color="#00DDFF" stop-opacity="0.75" offset="21%"></stop>
            <stop stop-color="#006CFF" stop-opacity="0.92" offset="46%"></stop>
            <stop stop-color="#00FCA7" offset="72%"></stop>
            <stop stop-color="#00A2FF" offset="100%"></stop>
        </linearGradient>
        <linearGradient x1="-215.806582%" y1="40.5579348%" x2="600.650142%" y2="72.5013323%" id="linearGradient-3">
            <stop stop-color="#0071FF" offset="0%"></stop>
            <stop stop-color="#00DDFF" stop-opacity="0.75" offset="21%"></stop>
            <stop stop-color="#006CFF" stop-opacity="0.92" offset="46%"></stop>
            <stop stop-color="#00FCA7" offset="72%"></stop>
            <stop stop-color="#00A2FF" offset="100%"></stop>
        </linearGradient>
        <linearGradient x1="-218.479579%" y1="43.5082873%" x2="594.015366%" y2="63.1599141%" id="linearGradient-4">
            <stop stop-color="#0071FF" offset="0%"></stop>
            <stop stop-color="#00DDFF" stop-opacity="0.75" offset="21%"></stop>
            <stop stop-color="#006CFF" stop-opacity="0.92" offset="46%"></stop>
            <stop stop-color="#00FCA7" offset="72%"></stop>
            <stop stop-color="#00A2FF" offset="100%"></stop>
        </linearGradient>
        <linearGradient x1="-223.928169%" y1="30.6867124%" x2="578.859348%" y2="87.2889061%" id="linearGradient-5">
            <stop stop-color="#0071FF" offset="0%"></stop>
            <stop stop-color="#00DDFF" stop-opacity="0.75" offset="21%"></stop>
            <stop stop-color="#006CFF" stop-opacity="0.92" offset="46%"></stop>
            <stop stop-color="#00FCA7" offset="72%"></stop>
            <stop stop-color="#00A2FF" offset="100%"></stop>
        </linearGradient>
        <linearGradient x1="-4.77649485%" y1="31.8258004%" x2="226.592879%" y2="103.322166%" id="linearGradient-6">
            <stop stop-color="#0071FF" offset="0%"></stop>
            <stop stop-color="#00DDFF" stop-opacity="0.75" offset="21%"></stop>
            <stop stop-color="#006CFF" stop-opacity="0.92" offset="46%"></stop>
            <stop stop-color="#00FCA7" offset="72%"></stop>
            <stop stop-color="#00A2FF" offset="100%"></stop>
        </linearGradient>
        <linearGradient x1="-11.0019488%" y1="32.6724457%" x2="331.129629%" y2="106.303562%" id="linearGradient-7">
            <stop stop-color="#0071FF" offset="0%"></stop>
            <stop stop-color="#00DDFF" stop-opacity="0.75" offset="21%"></stop>
            <stop stop-color="#006CFF" stop-opacity="0.92" offset="46%"></stop>
            <stop stop-color="#00EAB9" offset="72%"></stop>
            <stop stop-color="#00A2FF" offset="100%"></stop>
        </linearGradient>
        <linearGradient x1="-129.051442%" y1="11.1929561%" x2="212.964615%" y2="85.3534279%" id="linearGradient-8">
            <stop stop-color="#0071FF" offset="0%"></stop>
            <stop stop-color="#00DDFF" stop-opacity="0.75" offset="21%"></stop>
            <stop stop-color="#006CFF" stop-opacity="0.92" offset="46%"></stop>
            <stop stop-color="#00EAB9" offset="72%"></stop>
            <stop stop-color="#00A2FF" offset="100%"></stop>
        </linearGradient>
        <linearGradient x1="-253.140547%" y1="-20.9163939%" x2="104.508706%" y2="62.7789348%" id="linearGradient-9">
            <stop stop-color="#0071FF" offset="0%"></stop>
            <stop stop-color="#00DDFF" stop-opacity="0.75" offset="21%"></stop>
            <stop stop-color="#006CFF" stop-opacity="0.92" offset="46%"></stop>
            <stop stop-color="#00EAB9" offset="72%"></stop>
            <stop stop-color="#00A2FF" offset="100%"></stop>
        </linearGradient>
        <linearGradient x1="36.0651015%" y1="47.018878%" x2="495.992669%" y2="145.962255%" id="linearGradient-10">
            <stop stop-color="#0071FF" offset="0%"></stop>
            <stop stop-color="#00DDFF" stop-opacity="0.75" offset="21%"></stop>
            <stop stop-color="#006CFF" stop-opacity="0.92" offset="46%"></stop>
            <stop stop-color="#00FCA7" offset="72%"></stop>
            <stop stop-color="#00A2FF" offset="100%"></stop>
        </linearGradient>
    </defs>
    <g id="页面-1" stroke="none" stroke-width="1" fill="none" fill-rule="evenodd">
        <g id="首页" transform="translate(-138.000000, -26.000000)" fill-rule="nonzero">
            <g id="编组-14">
                <g id="编组" transform="translate(138.000000, 26.000000)">
                    <path d="M6.75,16 C6.87272994,16 6.97480419,16.0884376 6.99597217,16.2050622 L7,16.25 L7,17.75 C7,17.8727299 6.91156242,17.9748042 6.79493782,17.9959722 L6.75,18 L1.25,18 C1.12727006,18 1.02519581,17.9115624 1.00402783,17.7949378 L1,17.75 L1,16.25 C1,16.1272701 1.08843758,16.0251958 1.20506218,16.0040278 L1.25,16 L6.75,16 Z" id="路径" fill="url(#linearGradient-1)"></path>
                    <path d="M13.8836008,0.273012631 L14.5085,1.4995 L14.5085,1.4995 L18.75,1.49997217 C18.8880603,1.50001537 18.9999722,1.61193968 19,1.75 L19,3.25 C19,3.38807119 18.8880712,3.5 18.75,3.5 L12.718,3.5 L12.718,3.5 L10.733,7.5 L16.2475,7.4995 L15.1804956,5.36164228 C15.1188373,5.23810321 15.1690015,5.08797105 15.2925406,5.02631272 C15.3272125,5.00900797 15.3654325,5 15.4041829,5 L16.9449954,5 C17.1345184,5 17.3077506,5.10715439 17.3923789,5.27673329 L18.7781076,8.05346658 C19.0247212,8.54763273 18.8240402,9.14815336 18.329874,9.39476696 C18.1911957,9.46397438 18.0383288,9.5 17.8833406,9.5 L16.4995,9.5 L16.4995,9.5 L16.5,15.75 C16.5,15.8727299 16.5884376,15.9748042 16.7050622,15.9959722 L16.75,16 L18.75,16 C18.8727299,16 18.9748042,16.0884376 18.9959722,16.2050622 L19,16.25 L19,17.75 C19,17.8727299 18.9115624,17.9748042 18.7949378,17.9959722 L18.75,18 L15.9069172,18 C15.1683736,18 14.5475792,17.433 14.5026076,16.6970444 L14.5,16.6113993 L14.4995,9.5 L12.4995,9.5 L12.5,14.300299 C12.5,16.3086698 10.8747702,17.9350957 8.85702582,17.998105 L8.7355,18 L8.25,18 C8.12727006,18 8.02519581,17.9115624 8.00402783,17.7949378 L8,17.75 L8,16.25 C8,16.1272701 8.08843758,16.0251958 8.20506218,16.0040278 L8.25,16 L8.7355,16 C9.68239222,16 10.4474534,15.283735 10.4974053,14.3930399 L10.5,14.300299 L10.4995,9.5 L9.11225087,9.5 C8.55996612,9.5 8.11225087,9.05228475 8.11225087,8.5 C8.11225087,8.34583766 8.1478937,8.19376269 8.2163949,8.05565544 L10.476,3.5 L10.476,3.5 L8.25,3.5 C8.11192881,3.5 8,3.38807119 8,3.25 L8,1.75 C8,1.61192881 8.11192881,1.5 8.25,1.5 L12.264,1.5 L12.264,1.5 L11.6851242,0.363463647 C11.6224599,0.240431758 11.6713976,0.0898953015 11.7944294,0.0272310596 C11.8295732,0.00933116584 11.8684534,6.27561086e-17 11.9078931,0 L13.4380935,0 C13.6261162,-2.56583801e-16 13.7982433,0.105481732 13.8836008,0.273012631 Z" id="路径" fill="url(#linearGradient-2)"></path>
                    <path d="M34.883585,0.273072706 L35.5085,1.5 L35.5085,1.5 L40.25,1.5 C40.3727299,1.5 40.4748042,1.58843758 40.4959722,1.70506218 L40.5,1.75 L40.5,3.25 C40.5,3.37272994 40.4115624,3.47480419 40.2949378,3.49597217 L40.25,3.5 L28.75,3.5 C28.6272701,3.5 28.5251958,3.41156242 28.5040278,3.29493782 L28.5,3.25 L28.5,1.75 C28.5,1.62727006 28.5884376,1.52519581 28.7050622,1.50402783 L28.75,1.5 L33.264,1.5 L32.6851242,0.363463647 C32.6224599,0.240431758 32.6713976,0.0898953015 32.7944294,0.0272310596 C32.8295732,0.00933116584 32.8684534,-1.60257843e-15 32.9078931,-1.33226763e-15 L34.4380472,-1.33226763e-15 C34.626094,-1.36681128e-15 34.7982391,0.10550868 34.883585,0.273072706 Z" id="路径" fill="url(#linearGradient-3)"></path>
                    <path d="M28.75,7 L40.25,7 C40.3880712,7 40.5,6.88807119 40.5,6.75 L40.5,5.25 C40.5,5.11192881 40.3880712,5 40.25,5 L28.75,5 C28.6119288,5 28.5,5.11192881 28.5,5.25 L28.5,6.75 C28.5,6.88807119 28.6119288,7 28.75,7 Z" id="Stroke-15" fill="url(#linearGradient-4)"></path>
                    <path d="M28.75,10 L40.3,10 C40.4104569,10 40.5,9.91045695 40.5,9.8 L40.5,8.2 C40.5,8.08954305 40.4104569,8 40.3,8 L28.75,8 C28.6119288,8 28.5,8.11192881 28.5,8.25 L28.5,9.75 C28.5,9.88807119 28.6119288,10 28.75,10 Z" id="Stroke-17" fill="url(#linearGradient-4)"></path>
                    <path d="M29.25,18 L38.5,18 C39.6045695,18 40.5,17.1045695 40.5,16 L40.5,12.25 C40.5,11.8357864 40.1642136,11.5 39.75,11.5 L29.25,11.5 C28.8357864,11.5 28.5,11.8357864 28.5,12.25 L28.5,17.25 C28.5,17.6642136 28.8357864,18 29.25,18 Z M30.5,16 L30.5,13.5 L38.5,13.5 L38.5,15.25 C38.5,15.6642136 38.1642136,16 37.75,16 L30.5,16 L30.5,16 Z" id="Stroke-27" fill="url(#linearGradient-5)"></path>
                    <path d="M28.396088,0 C28.5341592,1.35334255e-15 28.646088,0.111928813 28.646088,0.25 C28.646088,0.30256354 28.6295202,0.353789844 28.5987394,0.396398141 L26.4990148,3.301 L26.5,17.75 C26.5,17.8683467 26.4177666,17.9674868 26.3073227,17.9933973 L26.25,18 L24.75,18 C24.6119288,18 24.5,17.8880712 24.5,17.75 L24.5,17.75 L24.4990148,6.07 L23.6166868,7.29279628 C23.5226817,7.42292268 23.3719139,7.5 23.211384,7.5 L21.4890148,7.5 C21.3509437,7.5 21.2390148,7.38807119 21.2390148,7.25 C21.2390148,7.19743646 21.2555826,7.14621016 21.2863635,7.10360186 L26.2684161,0.207203718 C26.3624212,0.0770773158 26.513189,2.51533464e-16 26.6737188,0 L28.396088,0 Z" id="形状结合" fill="url(#linearGradient-6)"></path>
                    <path d="M44.5,2 L44.5,8.5 L44.5,8.5 C44.5,13.1942847 48.3057153,17 53,17 C57.6942847,17 61.5,13.1942847 61.5,8.5 L61.5,2 C61.5,1.44771525 61.0522847,1 60.5,1 C59.9477153,1 59.5,1.44771525 59.5,2 L59.5,8.5 L59.5,8.5 C59.5,12.0897153 56.5897153,15 53,15 C49.4102847,15 46.5,12.0897153 46.5,8.5 L46.5,2 C46.5,1.44771525 46.0522847,1 45.5,1 C44.9477153,1 44.5,1.44771525 44.5,2 Z" id="路径" fill="url(#linearGradient-7)"></path>
                    <path d="M75.798,17 L72.2025,17 C68.501147,17 65.5,13.9992165 65.5,10.298 L65.5,7.702 C65.5,4.00078349 68.501147,1 72.2025,1 L75.798,1 C79.4992847,1 82.5,4.00071525 82.5,7.702 L82.5,10.298 C82.5,13.9992847 79.4992847,17 75.798,17 Z M75.798,15 C78.3947153,15 80.5,12.8947153 80.5,10.298 L80.5,7.702 C80.5,5.10528475 78.3947153,3 75.798,3 L72.2025,3 C69.6056623,3 67.5,5.10540722 67.5,7.702 L67.5,10.298 C67.5,12.8945928 69.6056623,15 72.2025,15 L75.798,15 Z" id="Stroke-21" fill="url(#linearGradient-8)"></path>
                    <path d="M97,8 C99.4852847,8 101.5,10.0147153 101.5,12.5 C101.5,14.9852847 99.4852847,17 97,17 L97,17 L87.5,17 C86.9477153,17 86.5,16.5522847 86.5,16 C86.5,15.4477153 86.9477153,15 87.5,15 L87.5,15 L97,15 C98.3807153,15 99.5,13.8807153 99.5,12.5 C99.5,11.1192847 98.3807153,10 97,10 L97,10 L90,10 C87.5147153,10 85.5,7.98528475 85.5,5.5 C85.5,3.01471525 87.5147153,1 90,1 L90,1 L99.5,1 C100.052285,1 100.5,1.44771525 100.5,2 C100.5,2.55228475 100.052285,3 99.5,3 L99.5,3 L90,3 C88.6192847,3 87.5,4.11928475 87.5,5.5 C87.5,6.88071525 88.6192847,8 90,8 L90,8 Z" id="形状结合" fill="url(#linearGradient-9)" opacity="0.97"></path>
                    <path d="M6.29497269,0.370937567 L3.46,5.5 L3.46,5.5 L4.5745,5.5 L6.41198574,5.5 C6.55005693,5.5 6.66198574,5.61192881 6.66198574,5.75 C6.66198574,5.78946207 6.652644,5.82836364 6.63472465,5.8635226 L3.762,11.5 L3.762,11.5 L6.75,11.5 C6.88807119,11.5 7,11.6119288 7,11.75 L7,13.25 C7,13.3880712 6.88807119,13.5 6.75,13.5 L2.5,13.5 L2.5,13.5 L1.72367927,13.5 C1.30946571,13.5 0.973679274,13.1642136 0.973679274,12.75 C0.973679274,12.6316809 1.00167277,12.5150404 1.05537245,12.4096091 L3.556,7.5 L3.556,7.5 L1.52568809,7.5 C1.02863181,7.5 0.625688088,7.09705627 0.625688088,6.6 C0.625688088,6.44772656 0.664323718,6.29794268 0.737978719,6.164668 L4.00224963,0.258148889 C4.09027417,0.0988733154 4.2578851,3.66496246e-16 4.43986595,0 L6.07617117,0 C6.21424236,-9.13541685e-16 6.32617117,0.111928813 6.32617117,0.25 C6.32617117,0.292302826 6.31543669,0.333913876 6.29497269,0.370937567 Z" id="路径" fill="url(#linearGradient-10)"></path>
                </g>
            </g>
        </g>
    </g>
</svg>